<svg width="1281" height="1032" viewBox="0 0 1281 1032" fill="none" xmlns="http://www.w3.org/2000/svg">
<g filter="url(#filter0_f_1_286)">
<path d="M611.138 561.069C566.471 497.569 445.338 356.869 318.138 302.069C274.471 251.069 185.038 161.269 176.638 210.069C168.238 258.869 173.138 291.735 176.638 302.069C178.138 354.735 189.438 480.269 222.638 561.069C255.838 641.869 436.138 794.069 522.138 860.069C596.471 863.569 742.138 854.169 730.138 788.569C718.138 722.969 645.805 609.569 611.138 561.069Z" fill="url(#paint0_radial_1_286)" fill-opacity="0.4"/>
</g>
<g filter="url(#filter1_f_1_286)">
<path d="M811.965 374.849C842.177 417.838 924.113 513.092 1010.15 550.192C1039.69 584.719 1100.18 645.513 1105.86 612.476C1111.54 579.438 1108.23 557.187 1105.86 550.192C1104.85 514.536 1097.2 429.55 1074.75 374.849C1052.29 320.148 930.336 217.108 872.165 172.426C821.885 170.057 723.355 176.421 731.472 220.832C739.589 265.243 788.516 342.015 811.965 374.849Z" fill="url(#paint1_radial_1_286)" fill-opacity="0.4"/>
</g>
<defs>
<filter id="filter0_f_1_286" x="0.699997" y="24.7" width="901.436" height="1007.3" filterUnits="userSpaceOnUse" color-interpolation-filters="sRGB">
<feFlood flood-opacity="0" result="BackgroundImageFix"/>
<feBlend mode="normal" in="SourceGraphic" in2="BackgroundImageFix" result="shape"/>
<feGaussianBlur stdDeviation="85.65" result="effect1_foregroundBlur_1_286"/>
</filter>
<filter id="filter1_f_1_286" x="559.7" y="0.699982" width="720.6" height="792.6" filterUnits="userSpaceOnUse" color-interpolation-filters="sRGB">
<feFlood flood-opacity="0" result="BackgroundImageFix"/>
<feBlend mode="normal" in="SourceGraphic" in2="BackgroundImageFix" result="shape"/>
<feGaussianBlur stdDeviation="85.65" result="effect1_foregroundBlur_1_286"/>
</filter>
<radialGradient id="paint0_radial_1_286" cx="0" cy="0" r="1" gradientUnits="userSpaceOnUse" gradientTransform="translate(451.418 528.349) rotate(80.479) scale(336.86 283.21)">
<stop stop-color="#1A51C8"/>
<stop offset="1" stop-color="#1E568B" stop-opacity="0.11"/>
</radialGradient>
<radialGradient id="paint1_radial_1_286" cx="0" cy="0" r="1" gradientUnits="userSpaceOnUse" gradientTransform="translate(920 397) rotate(-99.5129) scale(228.048 191.57)">
<stop stop-color="#2C1AC8"/>
<stop offset="1" stop-color="#1E568B" stop-opacity="0.11"/>
</radialGradient>
</defs>
</svg>
